{"asset":{"generator":"Khronos glTF Spline I/O v0.0.1","version":"2.0"},"scenes":[{"nodes":[0]}],"nodes":[{"name":"","children":[1,2]},{"name":"Cube 2","matrix":[-4.440892098500628e-16,0,1.0000000000000009,0,1.0000000000000009,-4.440892098500628e-16,0,0,0,1.0000000000000009,-4.440892098500628e-16,0,4.1065633512844215,8.500000000000018,-1.3149046351318248,1],"mesh":0},{"name":"Personal Camera","camera":0,"translation":[-725.2856183036597,278.059350404947,629.7966096560522],"rotation":[-0.1277619904883023,-0.41082668968610225,-0.05826599312361028,0.9008348233018889]}],"cameras":[{"type":"orthographic","orthographic":{"xmag":1536,"ymag":750,"zfar":500000,"znear":-500000}}],"meshes":[{"primitives":[{"attributes":{"POSITION":1,"NORMAL":2,"FACEMAP":3,"COLOR":4},"indices":0}]}],"buffers":[{"uri":"data:application/octet-stream;base64,","byteLength":960}],"bufferViews":[{"buffer":0,"byteOffset":0,"byteLength":120,"target":34963},{"buffer":0,"byteOffset":120,"byteLength":240,"target":34962},{"buffer":0,"byteOffset":360,"byteLength":240,"target":34962},{"buffer":0,"byteOffset":600,"byteLength":40,"target":34962},{"buffer":0,"byteOffset":640,"byteLength":320,"target":34962}],"accessors":[{"bufferView":0,"byteOffset":0,"componentType":5125,"count":30,"type":"SCALAR","min":[0],"max":[19]},{"bufferView":1,"byteOffset":0,"componentType":5126,"count":20,"type":"VEC3","min":[-11.305773735046387,-11.36690902709961,-10.1935396194458],"max":[11.395349502563477,11.368684768676758,-5.984397888183594]},{"bufferView":2,"byteOffset":0,"componentType":5126,"count":20,"type":"VEC3","min":[-0.6122795343399048,-0.6229597330093384,-0.7673048377037048],"max":[0.6173774600028992,0.6200258135795593,-0.49059316515922546]},{"bufferView":3,"byteOffset":0,"componentType":5125,"count":10,"type":"SCALAR","min":[0],"max":[9]},{"bufferView":4,"byteOffset":0,"componentType":5126,"count":20,"type":"VEC4","min":[0,0,0,0],"max":[0,0,0,0]}],"extensions":{"KHR_lights_punctual":{"lights":[]}},"extensionsUsed":["KHR_lights_punctual"]}