{"asset":{"generator":"Khronos glTF Spline I/O v0.0.1","version":"2.0"},"scenes":[{"nodes":[0]}],"nodes":[{"name":"","children":[1,2,3]},{"name":"Spot Light","translation":[0,270.0222622883185,0],"rotation":[0,0,0,1],"extensions":{"KHR_lights_punctual":{"light":0}}},{"name":"Bunny","matrix":[1,0,0,0,0,1,0,0,0,0,1,0,0,0,0,1],"mesh":0},{"name":"personal","camera":0,"translation":[-744.8193581693985,365.65968794982206,558.1551005809798],"rotation":[-0.16641839503712452,-0.43957635002667916,-0.08325027368226164,0.8787189210562832]}],"cameras":[{"type":"orthographic","orthographic":{"xmag":1536,"ymag":778,"zfar":500000,"znear":-500000}}],"meshes":[{"primitives":[{"attributes":{"POSITION":0,"NORMAL":1,"TEXCOORD_0":2}}]}],"buffers":[{"uri":"data:application/octet-stream;base64,","byteLength":480192}],"bufferViews":[{"buffer":0,"byteOffset":0,"byteLength":180072,"target":34962},{"buffer":0,"byteOffset":180072,"byteLength":180072,"target":34962},{"buffer":0,"byteOffset":360144,"byteLength":120048,"target":34962}],"accessors":[{"bufferView":0,"byteOffset":0,"componentType":5126,"count":15006,"type":"VEC3","min":[-50,-49.68760681152344,-39.00210189819336],"max":[50,49.68760681152344,39.00210189819336]},{"bufferView":1,"byteOffset":0,"componentType":5126,"count":15006,"type":"VEC3","min":[-0.999016523361206,-0.9999673366546631,-0.9995105862617493],"max":[0.9985578060150146,0.9994427561759949,0.9996748566627502]},{"bufferView":2,"byteOffset":0,"componentType":5126,"count":15006,"type":"VEC2","min":[0.008070999756455421,0.008070000447332859],"max":[0.9919289946556091,0.9919300079345703]}],"extensions":{"KHR_lights_punctual":{"lights":[{"type":"spot","name":"Spot Light","color":[1,1,1],"intensity":0.2,"range":2000,"spot":{"innerConeAngle":0.5235987755982988,"outerConeAngle":0.5235987755982988}}]}},"extensionsUsed":["KHR_lights_punctual"]}