{"asset":{"generator":"Khronos glTF Spline I/O v0.0.1","version":"2.0"},"scenes":[{"nodes":[0]}],"nodes":[{"name":"","children":[1,2,3,4,5]},{"name":"Rectangle","matrix":[-0.02316998140651477,-0.40576278794810405,0.9136846895281913,0,0.9951264963236731,0.07825911195657824,0.05998973004034617,0,-0.09584575252022312,0.9106218047643884,0.40197203934039805,0,17.32908617785104,280.66346075660704,62.241196592371075,1],"mesh":0},{"name":"Sphere","matrix":[4.930380657631324e-32,-4.440892098500628e-16,1.0000000000000004,0,1.0000000000000007,-4.930380657631324e-32,4.930380657631324e-32,0,4.930380657631992e-32,1.0000000000000007,4.440892098500628e-16,0,32.76639556884767,209.33098686697673,0.8962121762050784,1],"mesh":1},{"name":"Cylinder","matrix":[-2.2204460492504127e-16,2.958228394578795e-31,1.0000000000000455,0,1.972152263052452e-31,1.0000000000000002,9.860761315262646e-32,0,-1.0000000000000457,1.972152263052563e-31,-2.220446049250413e-16,0,32.852829319321714,102.5,0.7211391575683306,1],"mesh":2},{"name":"Directional Light","translation":[200,300,300],"rotation":[-0.4062840720729887,0.12301291902225084,-0.2623788760260691,0.8665785595944042],"extensions":{"KHR_lights_punctual":{"light":0}}},{"name":"Personal Camera","camera":0,"translation":[-764.6817057395652,549.7362549459674,560.5575195993598],"rotation":[-0.1236412582419216,-0.4491271127072799,-0.06291481123555535,0.882632087802597]}],"cameras":[{"type":"orthographic","orthographic":{"xmag":1536,"ymag":750,"zfar":500000,"znear":-500000}}],"meshes":[{"primitives":[{"attributes":{"POSITION":1,"NORMAL":2,"TEXCOORD_0":3},"indices":0}]},{"primitives":[{"attributes":{"POSITION":5,"NORMAL":6,"FACEMAP":7,"COLOR":8},"indices":4}]},{"primitives":[{"attributes":{"POSITION":10,"NORMAL":11,"TEXCOORD_0":12},"indices":9}]}],"buffers":[{"uri":"data:application/octet-stream;base64,","byteLength":44000},{"uri":"data:application/octet-stream;base64,","byteLength":94656},{"uri":"data:application/octet-stream;base64,","byteLength":13952}],"bufferViews":[{"buffer":0,"byteOffset":0,"byteLength":12000,"target":34963},{"buffer":0,"byteOffset":12000,"byteLength":12000,"target":34962},{"buffer":0,"byteOffset":24000,"byteLength":12000,"target":34962},{"buffer":0,"byteOffset":36000,"byteLength":8000,"target":34962},{"buffer":1,"byteOffset":0,"byteLength":11832,"target":34963},{"buffer":1,"byteOffset":11832,"byteLength":23664,"target":34962},{"buffer":1,"byteOffset":35496,"byteLength":23664,"target":34962},{"buffer":1,"byteOffset":59160,"byteLength":3944,"target":34962},{"buffer":1,"byteOffset":63104,"byteLength":31552,"target":34962},{"buffer":2,"byteOffset":0,"byteLength":1536,"target":34963},{"buffer":2,"byteOffset":1536,"byteLength":4656,"target":34962},{"buffer":2,"byteOffset":6192,"byteLength":4656,"target":34962},{"buffer":2,"byteOffset":10848,"byteLength":3104,"target":34962}],"accessors":[{"bufferView":0,"byteOffset":0,"componentType":5125,"count":3000,"type":"SCALAR","min":[0],"max":[3]},{"bufferView":1,"byteOffset":0,"componentType":5126,"count":1000,"type":"VEC3","min":[-9.5,-15.625,0],"max":[9.5,15.625,0]},{"bufferView":2,"byteOffset":0,"componentType":5126,"count":1000,"type":"VEC3","min":[0,0,0],"max":[0,0,1]},{"bufferView":3,"byteOffset":0,"componentType":5126,"count":1000,"type":"VEC2","min":[0,0],"max":[1,1]},{"bufferView":4,"byteOffset":0,"componentType":5125,"count":2958,"type":"SCALAR","min":[0],"max":[1971]},{"bufferView":5,"byteOffset":0,"componentType":5126,"count":1972,"type":"VEC3","min":[-106.98360443115234,-108.05343627929688,0],"max":[106.98360443115234,108.05343627929688,83.7315902709961]},{"bufferView":6,"byteOffset":0,"componentType":5126,"count":1972,"type":"VEC3","min":[-0.9788383841514587,-0.9990274310112,0.01447384338825941],"max":[0.9771918058395386,0.9990274310112,0.9998775124549866]},{"bufferView":7,"byteOffset":0,"componentType":5125,"count":986,"type":"SCALAR","min":[0],"max":[985]},{"bufferView":8,"byteOffset":0,"componentType":5126,"count":1972,"type":"VEC4","min":[0,0,0,0],"max":[0,0,0,0]},{"bufferView":9,"byteOffset":0,"componentType":5123,"count":768,"type":"SCALAR","min":[0],"max":[387]},{"bufferView":10,"byteOffset":0,"componentType":5126,"count":388,"type":"VEC3","min":[-107.5,-107.5,-107.5],"max":[107.5,107.5,107.5]},{"bufferView":11,"byteOffset":0,"componentType":5126,"count":388,"type":"VEC3","min":[-1,-1,-1],"max":[1,1,1]},{"bufferView":12,"byteOffset":0,"componentType":5126,"count":388,"type":"VEC2","min":[0,0],"max":[1,1]}],"extensions":{"KHR_lights_punctual":{"lights":[{"type":"directional","name":"Directional Light","color":[1,1,1],"intensity":0.7}]}},"extensionsUsed":["KHR_lights_punctual"]}